<?xml version="1.0" standalone="no"?>
<!DOCTYPE svg PUBLIC "-//W3C//DTD SVG 20010904//EN"
 "http://www.w3.org/TR/2001/REC-SVG-20010904/DTD/svg10.dtd">
<svg version="1.0" xmlns="http://www.w3.org/2000/svg"
 width="1280.000000pt" height="640.000000pt" viewBox="0 0 1280.000000 640.000000"
 preserveAspectRatio="xMidYMid meet">
<metadata>
Created by potrace 1.15, written by Peter Selinger 2001-2017
</metadata>
<g transform="translate(0.000000,640.000000) scale(0.100000,-0.100000)"
fill="#fff" stroke="none">
<path d="M1104 4091 c-171 -31 -425 -154 -556 -271 -114 -102 -222 -283 -254
-427 -30 -138 -1 -307 82 -479 127 -260 393 -460 725 -543 186 -46 279 -56
559 -55 l265 1 135 36 c74 20 162 44 195 53 l61 17 39 -26 c64 -42 157 -76
257 -92 123 -20 342 -20 419 0 52 14 66 14 117 1 290 -74 542 -59 847 51 120
43 224 99 319 170 39 29 79 53 89 53 10 0 40 -11 67 -25 107 -54 360 -153 456
-179 291 -76 596 -75 809 4 243 91 427 284 501 527 27 89 26 287 -2 373 -72
216 -272 443 -490 553 -170 86 -418 137 -679 139 -343 3 -749 -116 -1077 -315
l-128 -78 -112 35 c-256 79 -509 73 -719 -18 -133 -58 -294 -185 -346 -273
-18 -30 -33 -44 -56 -49 -42 -9 -138 -57 -208 -104 -63 -44 -155 -140 -205
-215 -69 -103 -78 -306 -17 -377 14 -15 9 -18 -51 -37 -36 -11 -119 -31 -184
-45 -424 -90 -702 -72 -987 63 -147 70 -231 129 -328 230 -156 165 -227 324
-227 511 0 73 20 151 52 208 124 214 335 360 623 432 111 28 147 33 245 32
187 -1 434 -60 569 -135 81 -44 189 -158 231 -241 32 -63 34 -76 34 -156 -1
-108 -21 -148 -121 -240 -134 -123 -323 -189 -543 -190 -311 -1 -540 131 -540
309 0 132 98 217 297 257 81 16 102 17 180 6 96 -14 191 -53 249 -104 l34 -30
-20 -38 c-30 -58 -101 -89 -226 -98 l-99 -7 0 -40 0 -40 120 1 c147 0 218 19
277 72 86 78 90 173 11 269 -76 91 -317 164 -496 150 -158 -13 -267 -59 -361
-151 -100 -99 -126 -204 -83 -339 29 -91 76 -157 161 -225 88 -71 105 -80 213
-119 84 -30 115 -35 216 -40 289 -14 517 62 695 232 113 107 148 160 161 245
38 230 -30 413 -207 563 -110 93 -312 179 -498 211 -121 22 -359 20 -490 -3z
m4111 -291 c175 -14 247 -28 368 -70 157 -55 245 -109 338 -208 95 -100 117
-136 163 -270 57 -166 48 -283 -35 -443 -124 -239 -445 -387 -786 -365 -134 9
-258 36 -368 79 -154 59 -345 141 -344 147 0 3 30 19 67 37 37 18 117 62 178
98 l111 65 64 -30 c175 -82 404 -100 562 -44 65 23 143 92 174 154 109 215
-94 465 -444 547 -111 26 -341 22 -476 -7 -101 -22 -242 -76 -359 -137 l-67
-35 -32 23 c-18 13 -80 47 -137 75 l-104 53 40 10 c22 6 69 29 104 50 216 131
448 219 703 266 87 16 129 17 280 5z m-1610 -287 c33 -8 66 -18 73 -22 9 -5
-38 -45 -142 -119 -85 -62 -161 -112 -168 -112 -7 0 -42 9 -78 20 -35 11 -121
24 -190 30 -69 6 -153 13 -188 16 l-63 6 38 20 c21 11 51 31 68 43 81 61 234
118 360 134 86 11 210 4 290 -16z m493 -187 c155 -79 153 -76 100 -111 -23
-15 -87 -61 -140 -102 l-98 -73 -39 19 c-21 11 -85 39 -142 62 -57 22 -105 42
-107 44 -5 4 299 215 310 215 5 0 57 -24 116 -54z m1246 7 c46 -16 112 -48
154 -77 64 -42 78 -57 98 -103 30 -68 30 -96 -1 -148 -44 -75 -143 -114 -294
-115 -75 0 -244 37 -235 52 3 4 47 21 99 38 71 22 114 30 169 30 69 0 76 2 95
26 12 15 21 30 21 35 0 18 -87 52 -146 57 -74 6 -231 -19 -347 -54 -45 -14
-91 -28 -102 -30 -13 -3 -59 19 -130 62 -60 36 -122 73 -137 81 -16 8 -28 16
-28 18 0 6 264 108 320 123 176 47 331 48 464 5z m-2261 -149 c62 -9 120 -19
129 -23 12 -4 -48 -51 -213 -169 -126 -90 -236 -165 -243 -168 -25 -10 -36
199 -15 296 12 55 13 55 112 70 82 12 111 11 230 -6z m1396 -77 c15 -12 69
-47 119 -77 51 -30 92 -57 92 -60 0 -3 -51 -41 -112 -85 -61 -44 -126 -91
-144 -104 l-33 -24 -109 72 c-60 39 -117 74 -126 77 -9 4 -16 10 -14 15 4 10
279 207 292 208 4 1 20 -9 35 -22z m-1897 -81 c-5 -105 14 -192 50 -228 16
-16 18 -22 7 -29 -26 -17 -310 -159 -318 -159 -5 0 -14 20 -21 45 -38 137 49
313 207 416 42 27 76 49 77 49 1 0 0 -42 -2 -94z m1100 -12 c78 -31 151 -59
161 -63 18 -6 -17 -32 -418 -307 -100 -69 -295 -174 -323 -174 -20 0 -124 65
-176 109 -23 20 -53 43 -66 52 l-25 16 110 56 c61 31 214 125 340 211 127 85
235 155 242 155 6 1 76 -24 155 -55z m487 -258 l144 -73 -49 -24 c-27 -13 -80
-43 -119 -66 -129 -77 -258 -133 -380 -165 -107 -27 -135 -31 -258 -31 -122 1
-174 8 -141 20 5 2 59 31 120 64 107 60 248 152 433 283 51 36 96 66 100 65 3
0 71 -33 150 -73z m-1394 -226 c28 -28 67 -62 87 -77 21 -14 35 -30 31 -36 -3
-6 -49 -8 -122 -4 -87 4 -136 11 -198 31 -46 15 -83 31 -83 36 0 6 6 10 13 10
6 0 55 20 107 44 52 24 100 44 105 45 6 1 33 -22 60 -49z"/>
<path d="M11166 4094 c-193 -35 -397 -128 -504 -229 -136 -127 -202 -267 -202
-425 0 -163 34 -235 172 -366 179 -169 408 -245 695 -231 198 9 357 78 487
210 132 135 162 322 73 454 -106 158 -340 240 -577 203 -167 -26 -293 -88
-348 -169 -40 -60 -47 -90 -32 -151 9 -39 22 -59 58 -90 63 -56 128 -74 277
-74 l120 -1 3 41 3 41 -99 6 c-67 3 -114 11 -144 24 -48 22 -98 74 -98 103 0
48 145 124 271 141 75 11 98 10 180 -5 129 -25 243 -85 274 -145 64 -125 22
-243 -117 -327 -94 -57 -200 -85 -348 -91 -267 -11 -485 67 -633 227 -49 53
-57 68 -72 133 -15 67 -15 79 0 144 29 127 140 259 277 329 148 75 362 124
548 126 99 1 133 -3 245 -31 220 -55 386 -148 517 -290 81 -88 121 -157 150
-254 22 -78 22 -79 5 -178 -30 -179 -85 -283 -226 -431 -102 -107 -177 -160
-332 -232 -228 -107 -460 -138 -745 -101 -135 18 -307 53 -412 85 -68 20 -73
23 -59 38 21 24 47 106 47 151 0 65 -21 154 -48 206 -15 27 -70 93 -122 146
-79 79 -110 104 -187 142 -50 26 -103 48 -118 49 -20 2 -33 14 -51 44 -28 48
-114 131 -198 193 -225 166 -550 205 -873 105 l-112 -34 -127 77 c-332 200
-739 318 -1080 315 -530 -6 -892 -182 -1089 -532 -86 -152 -100 -202 -100
-350 1 -103 5 -137 24 -195 68 -203 175 -337 356 -444 155 -92 310 -131 523
-131 270 0 473 51 807 202 71 32 137 58 146 58 9 0 34 -14 55 -31 216 -173
559 -289 854 -289 103 0 197 12 333 44 63 15 74 15 130 0 77 -20 363 -14 472
10 62 14 184 66 226 97 13 10 43 4 145 -25 213 -60 256 -66 469 -73 212 -6
324 2 518 38 109 20 277 74 352 111 282 144 431 311 527 591 30 85 32 103 33
222 l0 130 -41 97 c-48 112 -134 237 -217 314 -128 119 -386 244 -567 275
-129 23 -378 24 -494 3z m-3201 -328 c217 -54 355 -111 567 -233 43 -24 94
-49 115 -55 l37 -10 -87 -43 c-47 -23 -109 -57 -137 -75 l-50 -32 -78 40
c-195 101 -352 146 -557 157 -233 14 -436 -45 -586 -168 -79 -66 -123 -131
-145 -217 -15 -59 -15 -67 2 -129 15 -56 26 -74 73 -121 68 -67 108 -87 215
-107 141 -25 313 -1 461 66 l67 31 147 -84 c80 -46 161 -89 179 -97 17 -8 32
-16 32 -19 0 -10 -367 -159 -453 -184 -207 -59 -456 -58 -633 5 -147 52 -212
88 -294 166 -124 117 -184 250 -184 413 0 101 20 178 80 303 42 89 173 222
275 279 150 83 313 130 519 147 166 15 277 6 435 -33z m1480 -237 c134 -15
284 -70 370 -134 17 -12 48 -31 70 -42 l40 -21 -65 -5 c-36 -4 -121 -11 -190
-17 -69 -6 -155 -19 -190 -30 -36 -11 -70 -20 -77 -20 -10 0 -291 195 -317
220 -17 16 107 45 254 59 8 0 56 -4 105 -10z m-495 -256 c128 -88 151 -108
134 -114 -10 -5 -77 -33 -147 -63 l-129 -54 -103 78 c-57 42 -120 88 -140 100
-24 15 -33 26 -26 33 13 13 233 126 247 127 6 0 80 -48 164 -107z m-1230 86
c121 -15 217 -41 360 -99 69 -27 126 -50 127 -50 2 0 3 -4 3 -10 0 -5 -8 -10
-17 -10 -9 0 -24 -6 -32 -13 -9 -8 -63 -42 -121 -76 l-105 -62 -105 30 c-231
67 -381 77 -468 32 l-43 -22 18 -32 c19 -32 20 -32 114 -38 84 -6 207 -38 251
-65 23 -14 -142 -52 -227 -53 -199 -1 -315 66 -315 182 0 56 19 105 51 137 72
68 194 126 314 149 70 12 98 13 195 0z m2190 -169 c112 -17 106 -13 124 -84
19 -78 20 -107 4 -209 -8 -52 -15 -76 -23 -73 -7 2 -116 78 -243 168 -260 183
-252 167 -92 192 118 18 149 18 230 6z m-1438 -160 c131 -92 164 -120 141
-120 -4 0 -60 -34 -123 -75 -63 -41 -117 -74 -121 -73 -14 5 -288 203 -288
208 -1 3 46 33 102 67 57 34 110 69 117 78 7 8 16 15 21 15 4 0 72 -45 151
-100z m1854 -4 c87 -73 154 -202 154 -299 0 -48 -19 -117 -33 -117 -5 0 -81
37 -168 82 -141 73 -180 98 -150 98 5 0 20 17 33 38 21 34 23 48 23 164 l0
127 48 -28 c27 -15 68 -44 93 -65z m-823 -124 c139 -92 291 -185 339 -207 48
-22 86 -43 85 -46 -8 -26 -231 -179 -259 -179 -39 0 -247 122 -468 275 -135
94 -257 177 -270 186 l-25 16 55 16 c30 9 102 37 160 61 58 25 111 45 118 46
8 0 127 -75 265 -168z m-592 -180 c197 -137 290 -197 414 -264 l100 -53 -85
-7 c-233 -20 -474 49 -740 211 -46 28 -95 54 -107 57 -13 4 -23 10 -23 15 0 8
264 147 281 148 3 1 75 -47 160 -107z m1261 -192 c59 -25 108 -48 108 -51 0
-10 -81 -38 -156 -54 -77 -16 -240 -20 -248 -6 -4 5 9 18 26 30 18 11 58 45
88 76 30 30 59 54 65 53 5 -2 58 -23 117 -48z"/>
</g>
</svg>
