<?xml version="1.0" encoding="utf-8"?>
<!-- Generator: Adobe Illustrator 13.0.0, SVG Export Plug-In . SVG Version: 6.00 Build 14948)  -->
<!DOCTYPE svg PUBLIC "-//W3C//DTD SVG 1.1//EN" "http://www.w3.org/Graphics/SVG/1.1/DTD/svg11.dtd">
<svg version="1.1" id="Layer_1" xmlns="http://www.w3.org/2000/svg" xmlns:xlink="http://www.w3.org/1999/xlink" x="0px" y="0px"
	 width="552.044px" height="129px" viewBox="0 0 552.044 129" enable-background="new 0 0 552.044 129" xml:space="preserve">
<g>
	<g>
		<path fill-rule="evenodd" clip-rule="evenodd" fill="transparent" d="M1.044,0c183.668,0,367.331,0,551,0c0,43,0,86,0,129
			c-184.004,0-367.994,0-552,0c0-42,0-84,0-126C-0.042,1.581-0.121,0.168,1.044,0z M263.044,33c2.855,6.932,15.37,18.671,8,26
			c-7.673-5.99-10.56-14.899-18-21c-13.616-11.165-34.832-17.797-56-18c-46.656-0.447-76.442,28.575-103,47
			c24.729-25.282-24.652-51.838-30-16c27.209-0.404,12.083,25.628,0,35c-10.231,7.936-23.414,10.649-33,12
			c-3.994-5.762,0.591-8.819-6-10c-3.897-0.698-9.269,1.826-9,8c0.26,5.976,9.5,9.959,16,11c25.048,4.012,43.498-5.225,62-12
			c13.942-5.105,30.481-14.107,41-13c15.173,1.598,5.628,13.457,1,17c24.045,12.884,39.305-19.287,22-30
			c-6.253-3.871-14.341-0.896-23-4c50.726-10.874,71.278,36.574,109,41c16.362,1.92,26.448-5.646,35-15
			c6.391,9.967,16.015,15.612,31,15c40.266-1.646,67.252-60.484,116-40c-16.927-1.609-37.271,4.983-33,23
			c2.355,9.938,21.088,16.758,30,7c3.632-4.023-4.973-4.317-3-10c29.531-14.527,69.613,24.893,102,21
			c10.83-1.302,22.381-9.009,16-21c-8.99-3.648-12.446,3.772-12,10c-10.423-0.511-23.628-4.063-34-12
			c-11.83-9.052-27.643-33.193-2-34c0.25-11.921-5.661-18.27-14-19c-17.276-1.513-25.564,18.804-16,35
			c-31.061-24.497-106.899-71.164-156-34c-4.412,3.34-7.127,8.613-10,13c-2.963,4.524-4.654,10.609-10,14
			c-5.688-9.651,4.781-19.668,8-27c-6.606-4.727-11.127-11.54-15-19C275.212,22.502,269.812,28.435,263.044,33z"/>
		<path fill-rule="evenodd" clip-rule="evenodd" fill="transparent" d="M260.044,55c0.809,4.809-4.388,3.612-3,9
			c-0.112,4.445,5.42,3.247,6,7c-0.338,5.329-2.753,8.58-8,9c-2.896-5.434-1.368-9.825-6-12c-12.527-5.882-18.801,19.973-2,22
			c15.376,1.855,18.948-14.742,26-22c13.798,39.073-50.637,45.975-46,7c-20.166-18.639-69.481-27.017-100-12
			c24.42-19.387,79.499-14.96,102,3c5.019-3.981,8.594-9.406,16-11c-34.164-27.685-103.678-13.342-134,8
			C143.025,34.637,225.669,18.151,260.044,55z"/>
		<path fill-rule="evenodd" clip-rule="evenodd" fill="transparent" d="M308.044,55c6.065,0.351,15.779,1.901,21,6
			c23.663-14.913,71.781-17.156,98-3c-28.059-8.203-75.387-5.508-95,12c-1.302,9.541-2.04,20.49-9,26
			c-17.782,14.076-49.757-3.364-41-28c8.664,2.748,6.629,13.522,13,18c8.563,6.019,25.447,2.794,26-9
			c0.795-16.95-22.426-11.901-17,4c-7.541,0.208-9.483-5.184-12-10c3.228-2.349,7.344-12.681,0-14
			c27.457-42.959,120.323-25.381,150,3c-20.959-10.689-57.15-26.774-94-23C331.84,38.66,318.491,45.981,308.044,55z"/>
		<path fill="#fff" fill-rule="evenodd" clip-rule="evenodd" d="M277.044,13c3.873,7.46,8.394,14.273,15,19c-3.219,7.332-13.688,17.349-8,27
			c5.346-3.391,7.037-9.476,10-14c2.873-4.387,5.588-9.66,10-13c49.101-37.164,124.939,9.503,156,34
			c-9.564-16.196-1.276-36.513,16-35c8.339,0.73,14.25,7.079,14,19c-25.643,0.807-9.83,24.948,2,34
			c10.372,7.937,23.577,11.489,34,12c-0.446-6.228,3.01-13.648,12-10c6.381,11.991-5.17,19.698-16,21
			c-32.387,3.893-72.469-35.527-102-21c-1.973,5.683,6.632,5.977,3,10c-8.912,9.758-27.645,2.938-30-7
			c-4.271-18.017,16.073-24.609,33-23c-48.748-20.484-75.734,38.354-116,40c-14.985,0.612-24.609-5.033-31-15
			c-8.552,9.354-18.638,16.92-35,15c-37.722-4.426-58.274-51.874-109-41c8.659,3.104,16.747,0.129,23,4
			c17.305,10.713,2.045,42.884-22,30c4.628-3.543,14.173-15.402-1-17c-10.519-1.107-27.058,7.895-41,13
			c-18.502,6.775-36.952,16.012-62,12c-6.5-1.041-15.74-5.024-16-11c-0.269-6.174,5.103-8.698,9-8c6.591,1.181,2.006,4.238,6,10
			c9.586-1.351,22.769-4.064,33-12c12.083-9.372,27.209-35.404,0-35c5.348-35.838,54.729-9.282,30,16
			c26.558-18.425,56.344-47.447,103-47c21.168,0.203,42.384,6.835,56,18c7.44,6.101,10.327,15.01,18,21
			c7.37-7.329-5.145-19.068-8-26C269.812,28.435,275.212,22.502,277.044,13z M348.044,37c36.85-3.774,73.041,12.311,94,23
			c-29.677-28.381-122.543-45.959-150-3c7.344,1.319,3.228,11.651,0,14c2.517,4.816,4.459,10.208,12,10
			c-5.426-15.901,17.795-20.95,17-4c-0.553,11.794-17.438,15.019-26,9c-6.371-4.478-4.336-15.252-13-18
			c-8.757,24.636,23.218,42.076,41,28c6.96-5.51,7.698-16.459,9-26c19.613-17.508,66.941-20.203,95-12
			c-26.219-14.156-74.337-11.913-98,3c-5.221-4.099-14.935-5.649-21-6C318.491,45.981,331.84,38.66,348.044,37z M111.044,63
			c30.322-21.342,99.836-35.685,134-8c-7.406,1.594-10.981,7.019-16,11c-22.501-17.96-77.58-22.387-102-3
			c30.519-15.017,79.834-6.639,100,12c-4.637,38.975,59.798,32.073,46-7c-7.052,7.258-10.624,23.855-26,22
			c-16.801-2.027-10.527-27.882,2-22c4.632,2.175,3.104,6.566,6,12c5.247-0.42,7.662-3.671,8-9c-0.58-3.753-6.112-2.555-6-7
			c-1.388-5.388,3.809-4.191,3-9C225.669,18.151,143.025,34.637,111.044,63z"/>
	</g>
</g>
</svg>
